<svg width="100" height="100" viewBox="0 0 100 100" xmlns="http://www.w3.org/2000/svg">
  <!-- Regalito 1 - Verde agua -->
  <g transform="translate(20, 20)">
    <rect x="0" y="0" width="20" height="20" fill="#14b8a6" opacity="0.15"/>
    <rect x="2" y="2" width="16" height="16" fill="#0d9488" opacity="0.1"/>
    <rect x="8" y="0" width="4" height="20" fill="#0f766e" opacity="0.2"/>
    <rect x="0" y="8" width="20" height="4" fill="#0f766e" opacity="0.2"/>
    <circle cx="10" cy="10" r="2" fill="#ffffff" opacity="0.3"/>
  </g>
  
  <!-- Regalito 2 - Verde agua más claro -->
  <g transform="translate(60, 10)">
    <rect x="0" y="0" width="15" height="15" fill="#2dd4bf" opacity="0.12"/>
    <rect x="1" y="1" width="13" height="13" fill="#14b8a6" opacity="0.08"/>
    <rect x="6" y="0" width="3" height="15" fill="#0d9488" opacity="0.15"/>
    <rect x="0" y="6" width="15" height="3" fill="#0d9488" opacity="0.15"/>
    <circle cx="7.5" cy="7.5" r="1.5" fill="#ffffff" opacity="0.25"/>
  </g>
  
  <!-- Regalito 3 - Verde agua oscuro -->
  <g transform="translate(10, 60)">
    <rect x="0" y="0" width="18" height="18" fill="#0f766e" opacity="0.18"/>
    <rect x="2" y="2" width="14" height="14" fill="#115e59" opacity="0.12"/>
    <rect x="7" y="0" width="4" height="18" fill="#134e4a" opacity="0.2"/>
    <rect x="0" y="7" width="18" height="4" fill="#134e4a" opacity="0.2"/>
    <circle cx="9" cy="9" r="2" fill="#ffffff" opacity="0.2"/>
  </g>
  
  <!-- Regalito 4 - Verde agua medio -->
  <g transform="translate(70, 70)">
    <rect x="0" y="0" width="12" height="12" fill="#5eead4" opacity="0.14"/>
    <rect x="1" y="1" width="10" height="10" fill="#2dd4bf" opacity="0.1"/>
    <rect x="5" y="0" width="2" height="12" fill="#14b8a6" opacity="0.16"/>
    <rect x="0" y="5" width="12" height="2" fill="#14b8a6" opacity="0.16"/>
    <circle cx="6" cy="6" r="1" fill="#ffffff" opacity="0.3"/>
  </g>
  
  <!-- Regalito 5 - Verde agua claro -->
  <g transform="translate(40, 40)">
    <rect x="0" y="0" width="16" height="16" fill="#99f6e4" opacity="0.1"/>
    <rect x="1" y="1" width="14" height="14" fill="#5eead4" opacity="0.08"/>
    <rect x="7" y="0" width="2" height="16" fill="#2dd4bf" opacity="0.12"/>
    <rect x="0" y="7" width="16" height="2" fill="#2dd4bf" opacity="0.12"/>
    <circle cx="8" cy="8" r="1.5" fill="#ffffff" opacity="0.25"/>
  </g>
</svg>
